Secret Ops agent Marcus is sent to Detroit to take out an arms dealer and the head of the hedge fund that is financing him. His CIA backup has other plans and turns on him and it's a fight to survive in a hospital.
 
http://www.imdb.com/title/tt1446072/

Subs: Dutch srt.

De bodyguard van een diplomaat raakt samen met nog een paar andere mensen gewond tijdens een moordaanslag. Ze worden allemaal naar hetzelfde ziekenhuis gebracht. De bodyguard besluit samen met een zuster de diplomaat te beschermen tegen een groep genadeloze huurmoordenaars.
 
http://www.moviemeter.nl/film/61479

Ondertitels: Nederlands (srt).

General
Complete name                    : Game of Death-AC3-DVDRip 2010 TBS\Game of Death-AC3-DVDRip 2010.avi
Format                           : AVI
Format/Info                      : Audio Video Interleave
File size                        : 1.36 GiB
Duration                         : 1h 22mn
Overall bit rate                 : 2 365 Kbps
Writing application              : VirtualDubMod 1.5.4.1 (build 2178/release)
Writing library                  : VirtualDubMod build 2178/release

Video
ID                               : 0
Format                           : MPEG-4 Visual
Format profile                   : Simple@L3
Format settings, BVOP            : No
Format settings, QPel            : No
Format settings, GMC             : No warppoints
Format settings, Matrix          : Default (H.263)
Codec ID                         : XVID
Codec ID/Hint                    : XviD
Duration                         : 1h 22mn
Bit rate                         : 1 907 Kbps
Width                            : 720 pixels
Height                           : 304 pixels
Display aspect ratio             : 2.35:1
Frame rate                       : 25.000 fps
Resolution                       : 8 bits
Colorimetry                      : 4:2:0
Scan type                        : Progressive
Bits/(Pixel*Frame)               : 0.348
Stream size                      : 1.10 GiB (81%)
Writing library                  : XviD 1.1.2 (UTC 2006-11-01)

Audio
ID                               : 1
Format                           : AC-3
Format/Info                      : Audio Coding 3
Codec ID                         : 2000
Duration                         : 1h 22mn
Bit rate mode                    : Constant
Bit rate                         : 448 Kbps
Channel(s)                       : 6 channels
Channel positions                : Front: L C R, Surround: L R, LFE
Sampling rate                    : 48.0 KHz
Stream size                      : 264 MiB (19%)
Alignment                        : Split accross interleaves
Interleave, duration             : 40 ms (1.00 video frame)
Interleave, preload duration     : 500 ms

Thanks to Just4fun-Team.

Blackbeard  TBS.